<?xml version="1.0" encoding="utf-8"?>
<svg viewBox="0 0 500 500" xmlns="http://www.w3.org/2000/svg">
  <g id="svgg" transform="matrix(1, 0, 0, 1, 6.980027, 117.948809)" style="">
    <path id="path0" d="M113.633 52.507 C 107.535 54.665,101.975 61.813,100.348 69.586 C 99.727 72.553,99.326 73.243,97.866 73.848 C 95.910 74.658,95.664 75.966,97.085 77.995 C 97.804 79.021,97.909 79.878,97.502 81.389 C 96.898 83.629,96.421 92.970,96.495 101.085 C 96.522 103.984,96.690 116.483,96.869 128.861 C 97.180 150.363,97.143 151.392,96.039 151.983 C 94.775 152.660,94.513 154.420,95.527 155.434 C 95.938 155.845,95.968 156.616,95.608 157.573 C 95.299 158.396,94.940 165.335,94.810 172.992 L 94.574 186.915 96.807 187.770 C 99.044 188.627,102.498 188.175,104.733 186.735 C 107.129 185.190,108.378 163.175,106.361 158.041 C 106.082 157.331,106.356 156.884,107.242 156.603 C 108.785 156.114,108.975 153.702,107.563 152.530 C 105.687 150.973,105.540 149.481,104.453 120.830 L 103.355 91.893 104.673 87.878 C 105.537 85.245,105.867 83.094,105.630 81.632 C 105.351 79.917,105.501 79.312,106.277 79.014 C 107.430 78.572,107.632 76.566,106.589 75.921 C 104.814 74.824,107.681 64.210,111.102 59.212 C 115.710 52.480,126.090 54.442,126.966 62.211 C 127.674 68.495,126.995 69.890,120.569 75.349 C 114.206 80.754,114.010 81.036,116.234 81.594 C 117.061 81.802,118.477 83.088,119.379 84.452 C 123.709 90.993,133.472 90.251,136.411 83.157 C 136.828 82.151,137.969 81.012,138.981 80.593 C 141.888 79.389,141.712 79.134,134.884 74.650 L 128.394 70.388 128.369 64.806 C 128.320 53.487,123.122 49.149,113.633 52.507 M135.814 82.230 C 135.814 87.674,125.465 89.771,121.217 85.187 C 119.027 82.825,119.127 82.769,125.123 83.002 C 128.111 83.118,131.530 82.934,132.720 82.593 C 135.431 81.816,135.814 81.771,135.814 82.230 M123.522 102.748 C 115.899 106.505,116.489 113.637,125.056 121.305 C 129.912 125.651,131.673 128.201,131.355 130.423 C 131.030 132.702,129.195 132.332,126.000 129.344 C 122.458 126.031,122.476 126.034,119.800 128.255 C 114.705 132.481,124.067 140.793,131.745 138.860 C 142.657 136.112,142.766 127.439,132.017 117.088 C 127.671 112.903,126.462 111.376,126.619 110.272 C 127.004 107.570,131.385 108.068,133.124 111.011 C 134.464 113.280,134.339 113.288,137.305 110.749 L 139.726 108.677 138.350 106.744 C 135.140 102.237,128.301 100.394,123.522 102.748 M146.795 102.763 C 146.272 103.651,148.135 128.413,148.899 130.747 C 151.234 137.870,158.454 140.637,165.065 136.944 C 170.117 134.121,170.703 132.071,171.520 114.380 C 172.062 102.636,171.939 102.326,166.757 102.326 L 163.016 102.326 163.523 107.442 C 164.423 116.507,164.160 125.942,162.947 128.173 C 158.977 135.471,155.062 126.613,154.812 109.767 L 154.707 102.636 150.896 102.452 C 148.800 102.352,146.954 102.491,146.795 102.763 M178.361 103.307 C 178.154 103.846,177.984 105.219,177.984 106.357 C 177.984 109.831,178.461 110.388,181.440 110.388 C 185.202 110.388,185.360 110.909,185.683 124.434 C 185.837 130.864,185.981 136.752,186.004 137.519 C 186.050 139.037,188.041 139.353,192.254 138.510 L 194.276 138.106 193.830 124.272 L 193.384 110.437 194.832 110.121 C 195.628 109.947,196.977 109.726,197.829 109.631 C 199.578 109.435,200.053 107.865,199.406 104.415 L 199.014 102.326 188.875 102.326 C 180.203 102.326,178.683 102.467,178.361 103.307 M206.940 102.724 C 206.704 102.960,206.512 104.780,206.512 106.770 L 206.512 110.388 209.571 110.388 C 213.500 110.388,213.389 109.989,213.874 125.842 L 214.264 138.605 217.054 138.656 C 222.858 138.764,222.763 139.074,221.847 122.898 C 221.087 109.495,221.008 109.794,225.302 109.777 L 227.659 109.767 227.473 106.202 L 227.287 102.636 217.327 102.466 C 211.850 102.372,207.175 102.489,206.940 102.724 M245.768 102.889 C 230.031 106.914,228.410 129.853,243.370 136.820 C 257.856 143.565,272.387 128.790,266.459 113.345 C 263.739 106.259,253.272 100.970,245.768 102.889 M275.349 118.053 C 275.349 126.362,275.526 134.455,275.743 136.037 L 276.138 138.915 280.134 138.915 L 284.131 138.915 283.754 128.217 C 283.443 119.422,283.517 117.729,284.169 118.699 C 284.605 119.347,286.136 121.580,287.571 123.660 C 289.007 125.740,291.797 129.876,293.773 132.851 L 297.364 138.259 301.395 138.122 L 305.426 137.984 305.290 121.860 C 305.119 101.605,305.447 102.946,300.666 102.946 L 296.859 102.946 297.236 113.643 L 297.614 124.341 295.528 121.860 C 292.300 118.022,289.321 113.653,286.119 108.062 L 283.189 102.946 279.269 102.946 L 275.349 102.946 275.349 118.053 M256.015 111.450 C 261.081 115.223,261.075 126.899,256.006 129.894 C 248.405 134.384,240.043 128.083,240.744 118.394 C 241.272 111.095,250.130 107.067,256.015 111.450 M153.191 147.408 C 144.380 151.978,146.738 165.875,156.461 166.682 C 162.973 167.222,165.574 165.095,165.579 159.225 L 165.581 156.279 161.860 156.279 L 158.140 156.279 158.140 158.140 C 158.140 159.961,158.553 160.258,160.775 160.032 C 161.372 159.972,161.860 160.302,161.860 160.767 C 161.860 164.139,155.230 163.988,153.465 160.576 C 150.820 155.461,154.452 149.984,159.820 150.991 C 161.982 151.397,163.471 148.959,161.976 147.464 C 160.745 146.234,155.518 146.200,153.191 147.408 M118.243 148.010 C 117.716 148.537,117.710 156.534,118.231 162.697 L 118.632 167.442 120.757 167.442 L 122.882 167.442 122.681 162.169 C 122.440 155.838,122.334 155.864,126.202 161.326 C 127.907 163.734,129.581 166.069,129.922 166.514 C 130.312 167.022,131.293 167.203,132.558 167.002 L 134.574 166.681 134.500 159.154 C 134.401 149.012,134.134 147.907,131.777 147.907 L 129.922 147.907 130.050 153.333 C 130.120 156.318,129.980 158.754,129.740 158.746 C 129.186 158.730,126.106 154.441,123.863 150.566 C 122.201 147.692,119.699 146.555,118.243 148.010 M138.594 148.372 C 138.438 148.798,138.416 150.822,138.544 152.868 C 138.672 154.915,138.808 158.908,138.846 161.743 L 138.915 166.897 141.240 166.704 C 144.094 166.468,144.182 166.027,143.564 155.194 L 143.131 147.597 141.003 147.597 C 139.833 147.597,138.749 147.946,138.594 148.372 M179.668 147.981 C 179.424 148.225,179.225 149.912,179.225 151.731 L 179.225 155.039 176.744 155.039 L 174.264 155.039 174.264 151.628 L 174.264 148.217 171.699 148.217 L 169.134 148.217 169.433 157.527 C 169.771 168.061,169.573 167.395,172.248 166.988 C 174.255 166.682,174.264 166.666,174.264 163.082 C 174.264 159.173,174.519 158.894,177.742 159.270 L 179.845 159.516 179.845 163.132 C 179.845 167.058,180.341 167.763,182.687 167.174 L 184.218 166.790 184.047 157.348 L 183.876 147.907 181.993 147.723 C 180.958 147.621,179.911 147.737,179.668 147.981 M188.145 148.491 C 187.480 150.225,188.203 151.625,189.865 151.818 C 191.960 152.061,192.229 153.111,192.240 161.085 L 192.248 167.442 194.419 167.442 L 196.589 167.442 196.589 159.733 C 196.589 152.211,196.623 152.019,197.984 151.826 C 199.054 151.674,199.425 151.157,199.574 149.612 L 199.769 147.597 194.128 147.597 C 189.789 147.597,188.409 147.803,188.145 148.491 M213.741 148.035 C 212.914 148.249,212.698 148.700,212.961 149.669 C 213.161 150.405,213.747 153.415,214.265 156.357 C 216.495 169.042,220.387 171.557,222.885 161.928 C 223.955 157.800,225.116 156.095,225.116 158.649 C 225.116 163.603,228.675 168.511,231.135 166.948 C 231.816 166.515,236.279 150.473,236.279 148.457 C 236.279 145.421,231.964 147.628,230.990 151.163 C 229.226 157.570,229.183 157.600,227.692 153.476 C 224.881 145.702,223.566 145.674,221.435 153.342 C 219.721 159.508,219.362 159.538,218.419 153.595 C 217.529 147.991,216.884 147.225,213.741 148.035 M243.119 148.992 C 240.851 154.494,236.351 166.480,236.499 166.628 C 237.815 167.944,240.396 167.304,241.240 165.452 C 242.569 162.537,249.063 162.300,250.413 165.116 C 251.094 166.538,251.626 166.822,253.605 166.822 L 255.980 166.822 254.464 162.946 C 249.334 149.829,248.038 147.597,245.554 147.597 C 244.209 147.597,243.535 147.983,243.119 148.992 M256.744 149.726 C 256.744 151.588,256.958 151.880,258.450 152.052 L 260.155 152.248 260.465 159.690 L 260.775 167.132 262.946 167.132 L 265.116 167.132 264.907 159.585 C 264.699 152.077,264.705 152.037,266.147 151.833 C 267.276 151.673,267.640 151.182,267.791 149.612 L 267.986 147.597 262.365 147.597 L 256.744 147.597 256.744 149.726 M276.253 148.752 C 270.621 152.186,270.577 161.769,276.174 165.851 C 278.322 167.419,285.381 167.598,286.856 166.123 C 288.568 164.411,286.461 162.569,283.208 162.935 C 279.821 163.317,277.981 162.374,276.855 159.679 C 274.980 155.192,277.572 151.214,282.371 151.214 C 285.587 151.214,288.216 149.282,286.487 148.189 C 284.837 147.145,278.297 147.505,276.253 148.752 M301.838 147.981 C 301.595 148.225,301.395 149.912,301.395 151.731 L 301.395 155.039 298.947 155.039 L 296.499 155.039 296.311 151.783 L 296.124 148.527 293.798 148.335 L 291.473 148.142 291.473 157.445 C 291.473 167.547,291.439 167.441,294.487 166.977 L 296.572 166.661 296.310 163.042 C 296.021 159.056,296.220 158.829,299.535 159.349 L 301.705 159.690 301.890 163.566 C 302.058 167.095,302.197 167.441,303.440 167.432 C 306.170 167.413,306.282 166.978,306.077 157.199 L 305.882 147.907 304.082 147.723 C 303.091 147.621,302.082 147.737,301.838 147.981 M247.116 156.248 C 248.377 158.688,248.351 158.760,246.202 158.760 C 244.182 158.760,244.028 158.423,244.946 156.009 C 245.715 153.985,245.959 154.012,247.116 156.248 M128.992 184.223 L 128.992 188.602 131.270 188.410 C 133.907 188.187,134.940 186.667,132.455 186.667 C 131.444 186.667,130.853 186.323,130.853 185.736 C 130.853 185.220,131.404 184.806,132.093 184.806 C 132.782 184.806,133.333 184.393,133.333 183.876 C 133.333 183.359,132.782 182.946,132.093 182.946 C 131.411 182.946,130.853 182.667,130.853 182.326 C 130.853 181.984,131.411 181.705,132.093 181.705 C 132.782 181.705,133.333 181.292,133.333 180.775 C 133.333 180.126,132.679 179.845,131.163 179.845 L 128.992 179.845 128.992 184.223 M153.303 183.992 L 153.488 188.217 155.814 188.410 C 157.590 188.557,158.140 188.373,158.140 187.634 C 158.140 187.080,157.610 186.667,156.899 186.667 C 156.217 186.667,155.659 186.281,155.659 185.809 C 155.659 185.337,156.217 184.805,156.899 184.627 C 157.581 184.448,158.140 183.997,158.140 183.624 C 158.140 183.251,157.581 182.946,156.899 182.946 C 156.217 182.946,155.659 182.667,155.659 182.326 C 155.659 181.984,156.240 181.705,156.951 181.705 C 159.206 181.705,157.860 180.166,155.426 179.961 L 153.118 179.766 153.303 183.992 M163.141 180.427 C 162.472 180.851,162.423 181.198,162.943 181.825 C 163.324 182.284,163.725 183.910,163.833 185.439 C 163.973 187.407,164.302 188.217,164.961 188.217 C 165.683 188.217,165.847 187.572,165.692 185.336 C 165.581 183.734,165.787 182.272,166.157 182.043 C 166.522 181.817,166.822 181.230,166.822 180.739 C 166.822 179.738,164.536 179.544,163.141 180.427 M175.504 184.223 L 175.504 188.602 177.782 188.410 C 180.418 188.187,181.452 186.667,178.966 186.667 C 177.956 186.667,177.364 186.323,177.364 185.736 C 177.364 185.220,177.916 184.806,178.605 184.806 C 179.294 184.806,179.845 184.393,179.845 183.876 C 179.845 183.359,179.294 182.946,178.605 182.946 C 177.922 182.946,177.364 182.667,177.364 182.326 C 177.364 181.984,177.922 181.705,178.605 181.705 C 179.294 181.705,179.845 181.292,179.845 180.775 C 179.845 180.126,179.190 179.845,177.674 179.845 L 175.504 179.845 175.504 184.223 M193.213 181.223 C 190.573 184.993,194.539 190.000,198.490 187.885 C 200.408 186.859,200.140 183.566,198.140 183.566 C 197.175 183.566,196.589 183.917,196.589 184.496 C 196.589 185.008,196.868 185.426,197.209 185.426 C 197.550 185.426,197.829 185.705,197.829 186.047 C 197.829 187.175,195.405 186.690,194.729 185.426 C 193.795 183.683,194.960 181.705,196.921 181.705 C 197.866 181.705,198.450 181.350,198.450 180.775 C 198.450 179.217,194.374 179.566,193.213 181.223 M209.147 180.283 C 207.548 180.591,207.318 181.406,208.682 181.930 C 209.338 182.182,209.612 183.205,209.612 185.407 C 209.612 187.767,209.839 188.527,210.543 188.527 C 211.255 188.527,211.473 187.740,211.473 185.168 C 211.473 183.143,211.763 181.712,212.203 181.565 C 213.110 181.263,212.293 179.814,211.281 179.929 C 210.875 179.976,209.915 180.135,209.147 180.283 M231.318 180.475 C 230.534 180.989,230.523 181.172,231.247 181.639 C 231.720 181.944,232.245 183.630,232.414 185.385 C 232.800 189.398,234.109 189.249,234.109 185.193 C 234.109 183.395,234.434 182.084,234.963 181.755 C 235.433 181.463,235.626 180.914,235.392 180.534 C 234.867 179.685,232.572 179.651,231.318 180.475 M243.847 183.992 L 244.031 188.217 246.150 188.217 C 248.527 188.217,249.516 186.874,247.371 186.559 C 245.569 186.295,245.059 184.806,246.770 184.806 C 247.505 184.806,248.062 184.405,248.062 183.876 C 248.062 183.359,247.511 182.946,246.822 182.946 C 245.195 182.946,245.215 181.849,246.846 181.594 C 249.030 181.251,248.478 180.164,246.017 179.961 L 243.662 179.767 243.847 183.992 M253.147 180.589 C 252.050 181.687,252.220 182.377,254.063 184.301 C 255.727 186.038,255.696 187.492,254.024 186.105 C 252.728 185.029,251.985 186.515,253.207 187.737 C 253.836 188.365,254.702 188.551,255.761 188.286 C 257.749 187.787,257.935 185.515,256.124 183.876 C 254.695 182.582,254.475 181.416,255.753 181.906 C 256.970 182.373,257.488 181.672,256.663 180.677 C 255.806 179.644,254.134 179.603,253.147 180.589 M284.173 180.643 C 281.481 181.873,281.489 186.383,284.186 187.886 C 285.719 188.741,286.064 188.741,287.597 187.883 C 291.801 185.531,288.544 178.644,284.173 180.643 M301.519 180.589 C 300.412 181.697,300.602 182.578,302.360 184.475 C 303.979 186.221,304.005 187.441,302.396 186.105 C 301.205 185.116,300.389 186.384,301.418 187.624 C 302.327 188.720,303.982 188.793,304.992 187.783 C 306.112 186.663,305.906 185.723,304.063 183.533 C 302.532 181.713,302.501 181.579,303.701 181.960 C 305.429 182.508,306.115 181.331,304.554 180.496 C 302.990 179.659,302.433 179.676,301.519 180.589 M118.204 182.436 C 119.244 188.371,121.176 190.552,121.953 186.667 C 122.158 185.643,122.535 184.806,122.791 184.806 C 123.047 184.806,123.423 185.643,123.628 186.667 C 124.153 189.292,125.710 189.035,126.453 186.202 C 127.908 180.653,127.924 180.465,126.941 180.465 C 126.420 180.465,125.726 181.233,125.397 182.171 L 124.799 183.876 124.120 182.171 C 123.410 180.385,122.295 179.918,121.900 181.240 C 120.985 184.312,120.743 184.533,120.363 182.643 C 119.806 179.875,117.720 179.675,118.204 182.436 M140.554 180.942 C 140.256 181.423,137.675 188.084,137.675 188.372 C 137.673 189.004,139.476 188.334,139.759 187.597 C 139.955 187.085,140.831 186.667,141.705 186.667 C 142.580 186.667,143.455 187.085,143.652 187.597 C 144.044 188.620,145.736 188.886,145.736 187.925 C 145.736 184.826,141.599 179.251,140.554 180.942 M146.977 184.459 C 146.977 187.662,147.175 188.527,147.907 188.527 C 148.454 188.527,148.843 187.953,148.851 187.132 L 148.865 185.736 150.006 187.221 C 151.514 189.182,153.042 188.427,151.702 186.383 C 151.075 185.425,150.981 184.771,151.411 184.341 C 152.892 182.860,151.727 180.783,149.302 180.583 L 146.977 180.390 146.977 184.459 M168.062 184.496 C 168.062 188.711,169.609 190.534,170.036 186.822 C 170.153 185.806,170.609 185.116,171.163 185.116 C 171.717 185.116,172.172 185.806,172.289 186.822 C 172.719 190.559,174.264 188.704,174.264 184.451 C 174.264 180.904,174.123 180.401,173.179 180.583 C 172.582 180.698,172.095 181.345,172.094 182.024 C 172.093 183.727,170.279 183.583,170.034 181.860 C 169.552 178.467,168.062 180.459,168.062 184.496 M184.310 184.290 C 184.494 188.173,184.517 188.217,186.305 188.217 C 188.435 188.217,189.147 186.973,187.295 186.489 C 186.211 186.206,186.039 185.739,186.184 183.488 C 186.323 181.336,186.141 180.777,185.240 180.592 C 184.244 180.387,184.144 180.784,184.310 184.290 M189.147 184.149 C 189.147 187.801,189.899 189.264,191.139 188.024 C 192.113 187.049,191.150 180.465,190.033 180.465 C 189.365 180.465,189.147 181.370,189.147 184.149 M200.811 181.550 C 200.667 182.147,200.663 183.975,200.804 185.611 C 201.081 188.831,202.333 189.375,202.680 186.427 C 202.951 184.135,204.886 184.476,205.161 186.864 C 205.546 190.214,206.822 188.236,206.822 184.288 C 206.822 181.061,206.653 180.465,205.736 180.465 C 204.983 180.465,204.651 180.955,204.651 182.067 C 204.651 184.010,203.195 183.797,202.903 181.812 C 202.666 180.201,201.184 180.015,200.811 181.550 M216.560 184.341 C 216.700 187.291,216.966 188.217,217.674 188.217 C 218.382 188.217,218.649 187.291,218.789 184.341 C 218.960 180.761,218.875 180.465,217.674 180.465 C 216.474 180.465,216.389 180.761,216.560 184.341 M219.535 182.558 C 219.535 185.811,220.249 188.601,221.013 188.330 C 221.394 188.195,221.658 187.151,221.600 186.010 L 221.495 183.936 223.509 186.334 C 225.865 189.141,227.018 188.860,226.671 185.564 C 226.537 184.295,226.412 182.628,226.392 181.860 C 226.370 180.998,225.970 180.465,225.345 180.465 C 224.526 180.465,224.402 180.907,224.694 182.791 L 225.054 185.116 223.538 183.256 C 222.704 182.233,222.020 181.186,222.019 180.930 C 222.017 180.674,221.457 180.465,220.775 180.465 C 219.780 180.465,219.535 180.879,219.535 182.558 M236.279 184.542 C 236.279 188.073,236.423 188.590,237.352 188.411 C 238.020 188.283,238.430 187.626,238.438 186.672 C 238.445 185.712,238.855 185.059,239.535 184.927 C 240.379 184.762,240.620 185.139,240.620 186.621 C 240.620 187.902,240.925 188.527,241.550 188.527 C 242.282 188.527,242.481 187.666,242.481 184.496 C 242.481 180.459,240.990 178.467,240.508 181.860 C 240.399 182.628,239.891 183.256,239.380 183.256 C 238.868 183.256,238.360 182.628,238.251 181.860 C 237.766 178.444,236.279 180.466,236.279 184.542 M258.266 181.132 C 257.516 182.346,258.614 188.527,259.580 188.527 C 260.150 188.527,260.465 187.865,260.465 186.667 C 260.465 184.137,262.227 184.156,262.734 186.691 C 263.377 189.910,264.496 188.386,264.496 184.289 C 264.496 181.067,264.327 180.470,263.411 180.468 C 262.657 180.466,262.326 180.954,262.326 182.067 C 262.326 184.010,260.869 183.797,260.577 181.812 C 260.369 180.401,258.972 179.990,258.266 181.132 M268.306 180.942 C 268.008 181.423,265.427 188.084,265.427 188.372 C 265.425 189.004,267.228 188.334,267.511 187.597 C 267.707 187.085,268.583 186.667,269.457 186.667 C 270.331 186.667,271.207 187.085,271.404 187.597 C 271.796 188.620,273.488 188.886,273.488 187.925 C 273.488 184.826,269.350 179.251,268.306 180.942 M274.729 184.496 L 274.729 188.527 276.855 188.527 C 279.529 188.527,280.930 187.159,280.930 184.548 C 280.930 182.027,279.310 180.465,276.695 180.465 L 274.729 180.465 274.729 184.496 M290.607 182.436 C 291.647 188.371,293.580 190.552,294.357 186.667 C 294.561 185.643,294.938 184.806,295.194 184.806 C 295.450 184.806,295.826 185.643,296.031 186.667 C 296.556 189.292,298.114 189.035,298.856 186.202 C 300.398 180.322,300.398 180.327,299.180 180.562 C 298.552 180.683,297.856 181.478,297.634 182.329 L 297.228 183.876 296.536 182.171 C 295.812 180.384,294.697 179.920,294.304 181.240 C 293.388 184.312,293.146 184.533,292.766 182.643 C 292.209 179.875,290.123 179.675,290.607 182.436 M286.867 182.180 C 288.879 183.558,287.837 187.010,285.540 186.574 C 284.094 186.299,283.504 183.042,284.757 182.247 C 285.765 181.608,286.019 181.600,286.867 182.180 M279.277 183.669 C 279.749 184.418,279.704 184.972,279.113 185.684 C 277.689 187.400,276.589 186.862,276.589 184.451 C 276.589 182.042,277.995 181.633,279.277 183.669 " fill-rule="evenodd" style="fill: rgb(147, 147, 147); stroke: rgb(93, 93, 93); stroke-width: 2px;"/>
  </g>
</svg>